<?xml version="1.0" encoding="UTF-8" standalone="no"?>
<!-- Created with Inkscape (http://www.inkscape.org/) -->

<svg
   width="512"
   height="512"
   viewBox="0 0 512 512"
   version="1.1"
   id="svg5"
   inkscape:export-filename="/home/nralbrecht/bitmap.png"
   inkscape:export-xdpi="192"
   inkscape:export-ydpi="192"
   inkscape:version="1.1.1 (3bf5ae0d25, 2021-09-20)"
   sodipodi:docname="saiga_logo.svg"
   xmlns:inkscape="http://www.inkscape.org/namespaces/inkscape"
   xmlns:sodipodi="http://sodipodi.sourceforge.net/DTD/sodipodi-0.dtd"
   xmlns="http://www.w3.org/2000/svg"
   xmlns:svg="http://www.w3.org/2000/svg">
  <sodipodi:namedview
     id="namedview7"
     pagecolor="#505050"
     bordercolor="#eeeeee"
     borderopacity="1"
     inkscape:pageshadow="0"
     inkscape:pageopacity="0"
     inkscape:pagecheckerboard="0"
     inkscape:document-units="px"
     showgrid="false"
     inkscape:snap-global="true"
     inkscape:zoom="1.0288956"
     inkscape:cx="143.35759"
     inkscape:cy="234.71769"
     inkscape:window-width="1920"
     inkscape:window-height="1042"
     inkscape:window-x="1080"
     inkscape:window-y="1118"
     inkscape:window-maximized="1"
     inkscape:current-layer="layer1" />
  <defs
     id="defs2" />
  <g
     inkscape:label="Layer 1"
     inkscape:groupmode="layer"
     id="layer1">
    <g
       id="g44720"
       transform="translate(3.7721008,-11.20097)">
      <path
         style="fill:none;fill-opacity:1;stroke:#000000;stroke-width:7;stroke-linecap:butt;stroke-linejoin:round;stroke-miterlimit:4;stroke-dasharray:none;stroke-opacity:1"
         d="m 193.70227,250.3773 c 0,0 12.89452,3.7415 15.56341,-0.32773 2.66888,-4.06923 8.16177,-20.32421 7.43039,-23.50281 -0.73138,-3.17859 -15.20123,-33.91167 -15.29596,-65.43712 -0.0948,-31.52545 -2.18561,-70.825871 -4.45476,-80.739239 -2.26915,-9.913367 -8.9203,-23.439013 -8.34247,-33.076443 0.57782,-9.637429 -0.57521,-13.924121 -0.57521,-13.924121 0,0 -5.51375,2.999136 -6.68622,5.860303 -1.17247,2.861168 -3.43855,18.780454 -2.07346,29.342131 1.3651,10.561678 5.22507,34.838719 1.92742,47.388279 -3.29765,12.54956 -8.19722,42.26191 -8.39988,53.93888 -0.20266,11.67697 5.30013,39.1571 10.25077,49.62755 4.95065,10.47047 10.65597,30.85032 10.65597,30.85032 z"
         id="path447"
         sodipodi:nodetypes="cssssscsssssc" />
      <path
         style="fill:none;fill-opacity:1;stroke:#000000;stroke-width:7;stroke-linecap:round;stroke-linejoin:round;stroke-miterlimit:4;stroke-dasharray:none;stroke-opacity:1"
         d="m 280.8532,228.72937 c 0,0 7.39278,19.8136 9.63171,21.46592 2.23893,1.65233 11.97372,5.79071 12.68767,4.84656 0.71396,-0.94414 17.01634,-54.69444 18.09438,-67.03253 1.07804,-12.3381 0.443,-30.13741 -2.31238,-44.33397 -2.7554,-14.19655 -8.09504,-41.46993 -8.31955,-51.175428 -0.22452,-9.705499 2.12419,-37.980169 0.92959,-43.573212 -1.1946,-5.593043 -8.65443,-17.90685 -10.8257,-17.853961 -2.17129,0.05289 -1.43138,16.720653 -3.30509,28.660667 -1.8737,11.940014 -6.33448,53.598944 -4.36892,73.635544 1.96557,20.03659 6.01408,46.67675 0.9401,61.94127 -5.07399,15.26452 -13.15181,33.41914 -13.15181,33.41914 z"
         id="path8165" />
      <path
         style="fill:none;fill-opacity:1;stroke:#000000;stroke-width:7;stroke-linecap:round;stroke-linejoin:miter;stroke-miterlimit:4;stroke-dasharray:none;stroke-opacity:1;paint-order:normal"
         d="m 296.13341,314.22846 c 0,0 3.00215,-4.72194 4.60114,-8.78212 1.59899,-4.06019 3.84886,-7.40452 7.36225,-8.08925 3.5134,-0.68471 5.33528,1.4633 8.63961,2.25509 3.30432,0.7918 5.46615,0.95767 5.46615,0.95767 0,0 -4.14859,6.70429 -5.77359,10.31308 -1.62499,3.60877 -4.5429,6.42962 -5.82815,6.56635 -1.28525,0.13672 -8.66806,-1.9279 -11.24901,-2.74183 -1.66736,-0.52582 -3.2184,-0.47899 -3.2184,-0.47899 z"
         id="path15761"
         sodipodi:nodetypes="cssscsssc" />
      <path
         style="fill:none;fill-opacity:1;stroke:#000000;stroke-width:7;stroke-linecap:round;stroke-linejoin:miter;stroke-miterlimit:4;stroke-dasharray:none;stroke-opacity:1;paint-order:normal"
         d="m 181.66936,301.77503 c 0,0 2.84444,-0.9947 5.18757,-2.35105 2.08308,-1.20582 3.6868,-2.50477 6.38496,-2.08537 2.69818,0.41936 5.21192,3.61769 5.61261,6.00631 0.59247,3.53192 2.66909,6.39379 2.66909,6.39379 0,0 -6.44732,4.86557 -9.37581,4.36018 -2.92848,-0.50539 -4.74679,-4.76621 -6.55055,-7.69975 -1.54872,-2.51871 -3.92787,-4.62411 -3.92787,-4.62411 z"
         id="path15796"
         sodipodi:nodetypes="cssscssc" />
      <path
         style="fill:none;stroke:#000000;stroke-width:7;stroke-linecap:butt;stroke-linejoin:miter;stroke-miterlimit:4;stroke-dasharray:none;stroke-opacity:1"
         d="m 172.88417,170.26884 c 4.90576,1.35508 10.45475,1.88494 14.41592,0.67396 3.96118,-1.21096 7.94844,-2.32725 13.27299,-3.11516"
         id="path18177"
         sodipodi:nodetypes="czc" />
      <path
         style="fill:none;stroke:#000000;stroke-width:7;stroke-linecap:butt;stroke-linejoin:miter;stroke-miterlimit:4;stroke-dasharray:none;stroke-opacity:1"
         d="m 177.67305,197.32197 c 4.90576,1.35509 7.87677,0.18613 14.41593,0.67397 6.53916,0.48784 8.34798,-2.06396 13.27299,-3.11516"
         id="path18177-6-5"
         sodipodi:nodetypes="czc" />
      <path
         style="fill:none;stroke:#000000;stroke-width:7;stroke-linecap:butt;stroke-linejoin:miter;stroke-miterlimit:4;stroke-dasharray:none;stroke-opacity:1"
         d="m 176.9224,141.33907 c 2.70565,7.80684 14.45983,5.05026 22.7401,2.13741"
         id="path18183"
         sodipodi:nodetypes="cc" />
      <path
         style="fill:none;stroke:#000000;stroke-width:7;stroke-linecap:butt;stroke-linejoin:miter;stroke-miterlimit:4;stroke-dasharray:none;stroke-opacity:1"
         d="m 180.2828,76.390641 c 4.9019,2.789566 12.78863,2.049459 18.06317,2.049459"
         id="path18199"
         sodipodi:nodetypes="cc" />
      <path
         style="fill:none;stroke:#000000;stroke-width:7;stroke-linecap:butt;stroke-linejoin:miter;stroke-miterlimit:4;stroke-dasharray:none;stroke-opacity:1"
         d="m 182.6625,99.629913 c 4.9019,2.789567 12.78862,2.049457 18.06317,2.049457"
         id="path18199-7"
         sodipodi:nodetypes="cc" />
      <path
         style="fill:none;stroke:#000000;stroke-width:7;stroke-linecap:butt;stroke-linejoin:miter;stroke-miterlimit:4;stroke-dasharray:none;stroke-opacity:1"
         d="m 181.20879,122.66442 c 4.9019,2.78957 12.78862,2.04946 18.06317,2.04946"
         id="path18199-5"
         sodipodi:nodetypes="cc" />
      <path
         style="fill:none;stroke:#000000;stroke-width:7;stroke-linecap:butt;stroke-linejoin:miter;stroke-miterlimit:4;stroke-dasharray:none;stroke-opacity:1"
         d="m 322.62086,167.85408 c -4.90575,1.35509 -8.93668,3.7148 -13.24917,3.69018 -4.31249,-0.0247 -8.32152,-0.89641 -13.64608,-1.6843"
         id="path18177-2"
         sodipodi:nodetypes="czc" />
      <path
         style="fill:none;stroke:#000000;stroke-width:7;stroke-linecap:butt;stroke-linejoin:miter;stroke-miterlimit:4;stroke-dasharray:none;stroke-opacity:1"
         d="m 319.97336,199.35588 c -4.90576,1.35509 -5.93529,-3.2695 -12.47445,-2.78166 -6.53916,0.48784 -6.59528,1.58469 -15.23135,0.462"
         id="path18177-6-5-9"
         sodipodi:nodetypes="czc" />
      <path
         style="fill:none;stroke:#000000;stroke-width:7;stroke-linecap:butt;stroke-linejoin:miter;stroke-miterlimit:4;stroke-dasharray:none;stroke-opacity:1"
         d="m 319.27581,142.08996 c -6.09786,2.462 -14.17679,7.73287 -24.29351,3.40031"
         id="path18183-1"
         sodipodi:nodetypes="cc" />
      <path
         style="fill:none;stroke:#000000;stroke-width:7;stroke-linecap:butt;stroke-linejoin:miter;stroke-miterlimit:4;stroke-dasharray:none;stroke-opacity:1"
         d="m 312.35711,74.221503 c -4.9019,2.789566 -12.23148,-0.142426 -17.50603,-0.142426"
         id="path18199-2"
         sodipodi:nodetypes="cc" />
      <path
         style="fill:none;stroke:#000000;stroke-width:7;stroke-linecap:butt;stroke-linejoin:miter;stroke-miterlimit:4;stroke-dasharray:none;stroke-opacity:1"
         d="m 310.53456,99.635533 c -4.9019,2.789567 -12.78863,2.049457 -18.06317,2.049457"
         id="path18199-7-7"
         sodipodi:nodetypes="cc" />
      <path
         style="fill:none;stroke:#000000;stroke-width:7;stroke-linecap:butt;stroke-linejoin:miter;stroke-miterlimit:4;stroke-dasharray:none;stroke-opacity:1"
         d="m 314.44626,121.16611 c -4.9019,2.78956 -14.30162,4.76039 -20.52117,3.55339"
         id="path18199-5-0"
         sodipodi:nodetypes="cc" />
      <path
         style="fill:none;stroke:#000000;stroke-width:7;stroke-linecap:butt;stroke-linejoin:miter;stroke-miterlimit:4;stroke-dasharray:none;stroke-opacity:1"
         d="m 192.36515,456.81054 c 0,0 -16.06364,-19.95739 -20.39956,-26.45308 -4.33592,-6.49569 -12.94674,-16.45441 -13.34026,-32.72136 -0.21802,-9.01234 9.79663,-29.95941 12.97972,-33.77686 3.0988,-3.71634 15.92236,-21.22519 16.26634,-27.21352 0.31877,-5.54934 -6.62649,-11.42047 -12.1334,-19.67306 -7.29011,-10.92487 -7.0482,-41.07435 -4.19574,-54.64802 2.84135,-13.52079 5.73637,-28.47315 16.3973,-35.91491"
         id="path22533"
         sodipodi:nodetypes="cssssssc" />
      <path
         style="fill:none;stroke:#000000;stroke-width:7;stroke-linecap:butt;stroke-linejoin:miter;stroke-miterlimit:4;stroke-dasharray:none;stroke-opacity:1"
         d="m 214.96652,215.67655 c 23.37662,-6.20524 54.24011,-8.14337 72.78901,-4.47107"
         id="path22535"
         sodipodi:nodetypes="cc" />
      <path
         style="fill:none;stroke:#000000;stroke-width:7;stroke-linecap:butt;stroke-linejoin:miter;stroke-miterlimit:4;stroke-dasharray:none;stroke-opacity:1"
         d="m 315.25548,216.78249 c 4.99647,1.20398 16.57658,8.82681 21.84177,24.93511 5.2652,16.1083 8.34102,35.55665 7.11851,43.15016 -1.2225,7.59351 -6.02057,16.20687 -9.04282,19.68582 -3.02224,3.47896 -8.14537,9.81145 -7.78945,14.39499 0.35594,4.58354 16.29916,29.62415 20.37005,37.73814 4.07088,8.11398 11.40183,20.16476 11.2386,30.25294 -0.16323,10.08817 -6.77687,29.20492 -12.20868,34.31212 -8.67029,8.15216 -15.22227,9.23976 -24.81992,17.59565 -7.57613,6.59591 -16.49075,23.88254 -16.49075,23.88254"
         id="path22537"
         sodipodi:nodetypes="cssssssssc" />
      <path
         style="fill:none;stroke:#000000;stroke-width:7;stroke-linecap:round;stroke-linejoin:round;stroke-miterlimit:4;stroke-dasharray:none;stroke-opacity:1"
         d="m 214.40504,279.32464 c 0,0 -3.60468,32.56065 -5.04155,47.69365 -1.43689,15.133 -6.05664,50.57474 -6.95348,65.10856 -0.89683,14.5338 2.58773,48.25418 6.57703,61.52413 3.98929,13.26995 8.57511,45.66948 8.57511,45.66948"
         id="path22945" />
      <path
         style="fill:none;stroke:#000000;stroke-width:7;stroke-linecap:round;stroke-linejoin:miter;stroke-miterlimit:4;stroke-dasharray:none;stroke-opacity:1"
         d="m 273.93447,269.50674 c 0,0 7.83251,33.74704 9.96095,46.23308 2.12844,12.48605 7.57948,27.65593 8.04085,35.26554 0.46136,7.60959 -0.69668,41.99795 -2.17299,54.5524 -1.4763,12.55446 -3.99532,50.85526 -5.56381,61.73711 -1.56848,10.88184 -7.99892,25.0877 -7.99892,25.0877"
         id="path23129" />
      <path
         style="fill:none;stroke:#000000;stroke-width:7;stroke-linecap:butt;stroke-linejoin:bevel;stroke-miterlimit:4;stroke-dasharray:none;stroke-opacity:1;paint-order:normal"
         d="m 276.20055,492.38257 c -7.61757,-2.87236 -10.1765,-3.43036 -16.4021,-3.58244 -7.55179,-0.18448 -14.62217,5.42021 -15.62428,8.58696 -2.54155,-4.91306 -9.70651,-6.0486 -16.71491,-5.4282 -6.89274,0.45347 -9.89711,7.36157 -9.89711,7.36157 0,0 2.75051,5.56168 11.96641,3.6134 9.2159,-1.94829 14.64561,-5.54677 14.64561,-5.54677 0,0 10.22367,3.81953 16.08882,3.45066 6.23125,-0.3919 15.93756,-8.45518 15.93756,-8.45518"
         id="path23803"
         sodipodi:nodetypes="cccscscsc" />
      <path
         style="fill:none;stroke:#000000;stroke-width:7;stroke-linecap:butt;stroke-linejoin:miter;stroke-miterlimit:4;stroke-dasharray:none;stroke-opacity:1"
         d="m 325.18504,222.56537 c 0,0 8.40012,-4.78179 16.93856,-6.69496 8.53843,-1.91316 16.88998,-4.86014 19.47627,-3.38582 2.5863,1.47433 4.05779,4.13688 4.74948,6.94179 0.6917,2.80492 5.1562,18.89528 4.73941,24.4942 -0.4168,5.59892 -4.33171,18.59396 -7.80546,22.58217 -3.47375,3.98822 -7.56145,6.71433 -10.38726,7.97119 -2.82582,1.25686 -6.86176,2.86908 -6.86176,2.86908"
         id="path30704" />
      <path
         style="fill:none;stroke:#000000;stroke-width:7;stroke-linecap:butt;stroke-linejoin:miter;stroke-miterlimit:4;stroke-dasharray:none;stroke-opacity:1"
         d="m 178.92517,241.71617 c 0,0 -6.57019,-7.72285 -14.69743,-10.96245 -7.05844,-2.81357 -15.17681,-1.12581 -18.11534,-0.60092 -2.93146,0.52361 -10.92773,4.03652 -12.20507,6.62832 -1.38238,2.80491 0.0207,17.76516 1.05902,23.28293 1.0932,5.8093 4.61996,18.94701 6.83144,23.86222 2.16933,4.82155 7.77554,8.90659 12.1439,10.44825 7.40126,2.61202 12.88547,1.40352 12.88547,1.40352"
         id="path30704-3"
         sodipodi:nodetypes="cssssssc" />
    </g>
  </g>
</svg>
